<?xml version="1.0" encoding="UTF-8"?><svg id="Layer_1" xmlns="http://www.w3.org/2000/svg" xmlns:xlink="http://www.w3.org/1999/xlink" viewBox="0 0 117.69 117.7"><defs><style>.cls-1{fill:url(#radial-gradient);stroke-width:0px;}</style><radialGradient id="radial-gradient" cx="-6419.37" cy="-123.14" fx="-6419.37" fy="-123.14" r=".13" gradientTransform="translate(-387634.88 20209784.71) rotate(90) scale(3148.25)" gradientUnits="userSpaceOnUse"><stop offset=".08" stop-color="#2aff50"/><stop offset=".19" stop-color="#0032e6"/><stop offset=".24" stop-color="#2b5aff"/><stop offset=".33" stop-color="#fff"/><stop offset=".6" stop-color="#b4c3f9" stop-opacity=".64"/><stop offset=".99" stop-color="#446aef" stop-opacity=".1"/></radialGradient></defs><path class="cls-1" d="M49.66,96.35l6.2,19.17c.94,2.9,5.04,2.9,5.98,0l6.2-19.17c2.13-6.62,5.81-12.65,10.74-17.57,4.93-4.92,10.95-8.6,17.57-10.74l19.16-6.2c2.9-.94,2.9-5.04,0-5.98l-19.16-6.2c-6.62-2.13-12.65-5.81-17.57-10.74-4.93-4.93-8.6-10.95-10.74-17.57l-6.2-19.17c-.94-2.9-5.04-2.9-5.98,0l-6.2,19.17c-2.13,6.62-5.81,12.65-10.74,17.57-4.93,4.93-10.95,8.6-17.57,10.74l-19.17,6.2c-2.9.94-2.9,5.04,0,5.98l19.17,6.2c13.44,4.33,23.96,14.86,28.31,28.31Z"/></svg>